<?xml version="1.0" encoding="UTF-8" standalone="no"?>
<!-- Created with Inkscape (http://www.inkscape.org/) -->

<svg
   xmlns:dc="http://purl.org/dc/elements/1.1/"
   xmlns:cc="http://creativecommons.org/ns#"
   xmlns:rdf="http://www.w3.org/1999/02/22-rdf-syntax-ns#"
   xmlns:svg="http://www.w3.org/2000/svg"
   xmlns="http://www.w3.org/2000/svg"
   xmlns:sodipodi="http://sodipodi.sourceforge.net/DTD/sodipodi-0.dtd"
   xmlns:inkscape="http://www.inkscape.org/namespaces/inkscape"
   width="41mm"
   height="41mm"
   viewBox="0 0 41.000001 40.999999"
   version="1.1"
   id="svg8"
   inkscape:version="0.92.5 (2060ec1f9f, 2020-04-08)"
   sodipodi:docname="dicedornot-logo.svg"
   inkscape:export-filename="/home/cpennington/Dropbox/Blood Bowl/dicedornot-logo.png"
   inkscape:export-xdpi="101.6"
   inkscape:export-ydpi="101.6">
  <defs
     id="defs2" />
  <sodipodi:namedview
     id="base"
     pagecolor="#ffffff"
     bordercolor="#666666"
     borderopacity="1.0"
     inkscape:pageopacity="0.0"
     inkscape:pageshadow="2"
     inkscape:zoom="1.4142136"
     inkscape:cx="158.9224"
     inkscape:cy="204.09964"
     inkscape:document-units="mm"
     inkscape:current-layer="layer1"
     showgrid="false"
     fit-margin-top="1"
     fit-margin-left="1"
     fit-margin-right="1"
     fit-margin-bottom="1"
     inkscape:window-width="1918"
     inkscape:window-height="1053"
     inkscape:window-x="0"
     inkscape:window-y="25"
     inkscape:window-maximized="0"
     showguides="false" />
  <metadata
     id="metadata5">
    <rdf:RDF>
      <cc:Work
         rdf:about="">
        <dc:format>image/svg+xml</dc:format>
        <dc:type
           rdf:resource="http://purl.org/dc/dcmitype/StillImage" />
        <dc:title></dc:title>
      </cc:Work>
    </rdf:RDF>
  </metadata>
  <g
     inkscape:label="Layer 1"
     inkscape:groupmode="layer"
     id="layer1"
     transform="translate(0.15762544,-0.57725716)">
    <rect
       style="opacity:0.87999998;fill:#ffffff;fill-opacity:1;stroke:#333333;stroke-width:3;stroke-linecap:round;stroke-linejoin:miter;stroke-miterlimit:4;stroke-dasharray:none;stroke-opacity:1;paint-order:normal"
       id="rect823"
       width="36"
       height="36"
       x="2.3423746"
       y="3.0772572"
       ry="5"
       inkscape:export-xdpi="87.870277"
       inkscape:export-ydpi="87.870277" />
    <g
       id="g860"
       inkscape:export-xdpi="105.57998"
       inkscape:export-ydpi="105.57998">
      <path
         sodipodi:nodetypes="cccccccccccccccccccccccc"
         inkscape:connector-curvature="0"
         id="path839"
         d="m 12.14246,6.3935006 c -2.5356422,0.066266 -5.4743288,2.0974873 -5.0420695,4.9035764 0.00628,1.151168 1.2107029,2.575361 -0.085266,3.365169 -1.3306443,0.72213 -0.544694,1.753455 0.0093,2.706295 0.2967381,0.760002 1.1752069,0.951327 1.8381308,0.701249 0.3915179,1.049095 -0.2546758,2.781136 0.8159707,3.472656 0.609747,0.125421 0.688897,-0.796561 1.037662,-0.01912 0.368758,0.347769 0.900535,-0.05061 0.976685,-0.411861 0.09396,0.980686 1.513349,1.100968 1.778186,0.157613 -0.0088,0.981564 1.471309,1.497382 1.501718,0.433565 -0.02106,-0.476762 1.060338,0.329745 1.13533,-0.540535 0.244016,-0.727864 0.0054,-2.318839 0.465088,-2.730583 1.511414,0.462336 2.114486,-1.254206 2.727482,-2.249475 C 18.723,15.202529 17.529393,14.238831 18.484708,13.107303 19.854764,10.406387 17.387562,7.333489 14.725248,6.7516184 13.889858,6.5055048 13.015903,6.3504849 12.14246,6.3935006 Z m 4.294311,8.2341224 c 0.795649,0.611996 0.248952,1.633315 -0.65164,1.621607 -0.695043,0.09455 -1.526862,-0.0051 -1.900142,-0.681096 0.834929,-0.23446 1.769843,-0.90267 2.551782,-0.940511 z m -7.353039,0.02222 c 0.7745182,0.156206 1.484861,0.539199 2.220019,0.817521 -0.724364,0.666303 -1.6985536,1.61142 -2.5657344,0.566374 C 8.0167249,15.52813 8.4882761,14.895609 9.083732,14.649843 Z"
         style="opacity:0.87999998;fill:#cccccc;fill-opacity:1;stroke:none;stroke-width:0.35355341;stroke-linecap:round;stroke-linejoin:miter;stroke-miterlimit:4;stroke-dasharray:none;stroke-opacity:1;paint-order:normal" />
      <path
         sodipodi:nodetypes="cscscsssccscsssssccccsssscccsccsscscsssssscscscccscscscsscssccccccccscscccccscsccscssscss"
         inkscape:connector-curvature="0"
         id="path874-3-6"
         d="M 8.819223,21.971146 C 8.6049086,21.945652 8.5003183,21.44545 8.5003183,20.445985 c 0,-1.378224 -0.04207,-1.485739 -0.5740321,-1.466966 -0.4575003,0.01614 -0.75461,-0.327169 -1.4635707,-1.691169 L 5.5731759,15.576422 6.4427952,14.679204 C 7.2277907,13.869293 7.283319,13.71813 7.0134291,13.125785 6.8489876,12.764876 6.7144439,11.771 6.7144439,10.917174 c 0,-1.1116452 0.1461476,-1.7888827 0.514743,-2.3852825 C 7.5122948,8.0738126 8.057624,7.4881567 8.4410285,7.2304327 9.949593,6.2163802 11.101483,5.8603528 12.873782,5.8603528 c 1.362596,0 2.041633,0.140392 2.969852,0.6140214 1.187589,0.6059748 2.12642,1.4638069 2.950109,2.6955853 0.481913,0.7206738 0.548698,2.4737675 0.149063,3.9129155 -0.230499,0.830059 -0.193042,1.10224 0.256548,1.864237 0.289548,0.490748 0.52645,0.992284 0.52645,1.114527 0,0.12224 -0.417913,0.923811 -0.928698,1.781266 -0.724506,1.216236 -1.047045,1.542796 -1.466966,1.485253 -0.486534,-0.06667 -0.545624,0.06724 -0.614782,1.393208 -0.04749,0.910458 -0.192663,1.476273 -0.382688,1.491497 -2.740899,0.33149 -4.910741,0.265511 -7.513447,-0.241717 z m 4.742117,-2.078931 c 0.167695,0.01638 0.206094,0.410233 0.296599,0.892936 0.11693,0.623638 0.115413,0.892936 0.382687,0.892936 0.266023,0 0.31587,-0.267624 0.382687,-0.877879 0.05255,-0.479965 0.102772,-0.941398 0.228391,-1.019033 0.276957,-0.171168 0.526554,0.421067 0.56632,1.343748 0.02245,0.520751 0.07894,0.440902 0.240423,-0.339772 0.116095,-0.561274 0.217698,-1.456223 0.225784,-1.988776 0.01444,-0.950686 0.02977,-0.965582 0.843859,-0.819868 0.739789,0.132412 0.891024,0.05155 1.403186,-0.750237 0.315716,-0.494254 0.574031,-0.952559 0.574031,-1.018455 0,-0.06589 -0.279313,-0.5314 -0.620693,-1.034452 l -0.620693,-0.914642 0.487527,-1.073905 c 0.268141,-0.590646 0.490049,-1.394195 0.49313,-1.78566 0.0031,-0.391467 -0.215296,-1.144757 -0.485284,-1.6739771 C 17.689305,9.1959566 17.011885,8.4465891 16.453916,8.0599168 15.111857,7.129869 13.066685,6.6708538 11.478378,6.943217 10.801056,7.0593649 9.8142006,7.4275341 9.2853708,7.7613703 8.2903189,8.389518 7.479818,9.7193606 7.479818,10.723859 c 0,0.317258 0.1955413,1.197161 0.4345367,1.95534 0.2661206,0.844229 0.3402801,1.447061 0.191343,1.555383 -0.1337561,0.09728 -0.5074621,0.476635 -0.8304581,0.843007 l -0.5872663,0.666132 0.5568065,1.068257 c 0.4125393,0.791475 0.6638511,1.024104 0.9699534,0.897846 0.2272305,-0.09373 0.5853552,-0.186361 0.7958329,-0.205854 0.3021248,-0.02798 0.3984679,0.353949 0.4576459,1.814215 0.041221,1.017309 0.1756122,1.849654 0.2986352,1.849654 0.1230211,0 0.2993228,-0.344418 0.3917798,-0.765375 0.09246,-0.420955 0.274277,-0.776578 0.402959,-0.765374 0.30378,0.02645 0.188855,0.644019 0.204641,0.956718 0.01661,0.315717 0.132574,0.574031 0.257681,0.574031 0.125105,0 0.299502,-0.287016 0.387547,-0.637812 0.08805,-0.350796 0.21473,-0.666199 0.410345,-0.637812 0.19478,0.02827 0.182408,0.341646 0.250264,0.746667 0.09187,0.548377 0.143539,0.77571 0.44647,0.837002 0.323067,0.06536 0.422836,-0.11595 0.663155,-0.746666 0.169314,-0.444365 0.145371,-0.859888 0.379651,-0.837003 z m -2.353577,-1.484413 c -0.0634,-0.102581 -0.0338,-0.584796 0.06575,-1.071596 0.116525,-0.569732 0.349485,-0.917537 0.653832,-0.976148 0.384948,-0.07413 0.442973,0.0204 0.312246,0.508709 -0.0883,0.32987 -0.162132,0.788391 -0.164047,1.018936 -0.0037,0.440704 -0.670024,0.840082 -0.867785,0.520099 z m 1.638653,-0.284687 c -0.383655,-0.716865 -0.330151,-1.802645 0.08882,-1.802645 0.369693,0 0.658171,0.748081 0.664083,1.722092 0.0019,0.315717 -0.107282,0.574029 -0.242664,0.574029 -0.135382,0 -0.364994,-0.222064 -0.51025,-0.493476 z M 8.983648,16.801604 C 8.6180475,16.667429 8.1826458,16.258561 8.0160898,15.893012 7.7533054,15.316263 7.7883425,15.148454 8.2810505,14.623991 8.8940942,13.971434 9.0381098,13.982805 11.045251,14.842228 l 1.141748,0.488877 -1.014185,0.86779 C 10.615012,16.676179 10.043821,17.061932 9.9035038,17.056124 9.763184,17.050294 9.3492504,16.935781 8.983648,16.801604 Z M 14.45861,16.63549 c -0.589316,-0.188655 -0.906316,-0.610934 -1.24886,-1.266598 0.614805,-0.386633 1.431456,-0.588679 2.059191,-0.864038 0.681674,-0.29902 0.806262,-0.482759 1.204037,-0.45647 0.253338,0.01674 0.309552,0.185359 0.481032,0.520252 0.19093,0.372877 0.46306,0.718579 0.461513,0.858898 -0.0016,0.140318 -0.212463,0.506218 -0.468699,0.813111 -0.448804,0.537529 -1.425241,0.735129 -2.488214,0.394845 z"
         style="fill:#000000;stroke-width:0.25512469" />
      <g
         transform="matrix(1.1074696,0,0,1.1074696,-2.3417598,0.55921943)"
         id="g1834">
        <path
           style="opacity:0.87999998;fill:#ffff00;fill-opacity:1;stroke:none;stroke-width:0.78885156;stroke-linecap:round;stroke-linejoin:miter;stroke-miterlimit:4;stroke-dasharray:none;stroke-opacity:1;paint-order:normal"
           d="m 30.656203,30.020701 c -1.443108,-0.868993 -1.721549,-0.897546 -2.035401,-0.208715 -0.130759,0.286985 -0.300873,0.521791 -0.378028,0.521791 -0.07716,0 -0.442195,-0.375689 -0.811201,-0.834866 -0.369004,-0.459178 -0.756456,-0.834868 -0.861001,-0.834868 -0.104542,0 -0.437774,0.422651 -0.740507,0.939225 -0.302732,0.516575 -0.593347,0.939229 -0.645806,0.939229 -0.05246,0 -0.193609,-0.281771 -0.313661,-0.626153 -0.266034,-0.763145 -0.503017,-0.774505 -2.436772,-0.116787 -0.823667,0.280148 -1.497575,0.456797 -1.497575,0.392557 0,-0.06424 0.323567,-0.649451 0.719036,-1.300464 0.39547,-0.651014 0.815742,-1.438011 0.933934,-1.748884 0.207272,-0.545165 0.170646,-0.587561 -1.032112,-1.194711 C 20.871255,25.601836 20.3101,25.276457 20.3101,25.22499 c 0,-0.05147 0.563536,-0.476267 1.252302,-0.943999 0.688766,-0.467732 1.252302,-0.94293 1.252302,-1.055995 0,-0.113071 -0.381625,-0.964587 -0.848058,-1.892273 -0.46643,-0.927685 -0.808705,-1.726051 -0.760609,-1.774146 0.04809,-0.04809 0.627103,0.196429 1.286685,0.543391 1.797629,0.945606 2.058573,0.881089 2.51351,-0.621467 0.208541,-0.688766 0.446754,-1.252302 0.529362,-1.252302 0.08261,0 0.463271,0.516575 0.845921,1.147943 0.744801,1.228917 1.151325,1.398083 1.755471,0.730509 0.50251,-0.555266 0.73051,-0.52654 0.73051,0.09204 0,0.28021 0.09003,0.565118 0.200074,0.633127 0.11004,0.06801 0.871047,-0.214245 1.691125,-0.627229 0.820079,-0.412985 1.52398,-0.717954 1.564229,-0.677708 0.04025,0.04025 -0.204187,0.623047 -0.543184,1.295111 -0.811395,1.6086 -0.800896,1.953738 0.06196,2.036933 l 0.678328,0.0654 -1.095765,0.827239 c -0.602669,0.454983 -1.095763,0.971718 -1.095763,1.148303 0,0.176583 0.422652,0.545277 0.939228,0.819318 0.516575,0.274044 0.939226,0.57551 0.939226,0.669928 0,0.09443 -0.381986,0.274526 -0.848857,0.400242 -0.800909,0.215663 -0.841169,0.263583 -0.71273,0.84836 0.07487,0.340883 0.456856,1.096386 0.848856,1.678897 1.127497,1.675454 0.980363,1.799072 -0.838033,0.704088 z"
           id="path1803"
           inkscape:connector-curvature="0" />
        <path
           style="fill:#000000;stroke-width:0.24067074"
           d="m 24.823136,30.82577 -0.502839,-1.086701 c 0,0 -2.669731,0.836943 -4.232324,1.339438 0.785105,-1.71101 2.091817,-4.264958 2.091817,-4.264958 l -3.15486,-1.667873 3.15486,-2.156133 -2.478505,-4.979161 4.433905,2.236715 1.388665,-3.368167 1.924469,2.888049 2.192306,-2.471506 v 2.682984 l 3.948279,-2.136843 -1.543728,3.969736 c 0,0 1.531858,-0.29334 2.350017,-0.258073 -0.431318,0.817873 -2.944109,3.276568 -2.944109,3.276568 l 2.530963,1.580469 -2.556187,0.849484 c 0,0 1.367776,2.634465 1.747211,4.217219 -1.487548,-0.427595 -4.062728,-1.764475 -4.062728,-1.764475 0,0 -0.465888,1.309129 -0.92302,1.847305 -0.574202,-0.536755 -1.564686,-1.976252 -1.564686,-1.976252 0,0 -0.698766,1.678687 -1.292445,2.216923 -0.26971,-0.327896 -0.507061,-0.974748 -0.507061,-0.974748 z m 1.673522,-2.746279 1.434883,1.630968 0.752485,-1.279331 2.641207,1.189727 -1.323102,-2.425404 1.454005,-1.153925 -1.815597,-1.200728 1.820076,-1.830887 -1.074394,0.02074 1.175322,-2.839579 -2.883093,1.260586 0.0661,-1.56436 -1.56424,1.323689 -1.558319,-2.443679 -0.79379,2.515369 -3.009265,-1.235175 1.564112,3.424935 -2.165609,1.6129 2.067761,1.21612 -1.496946,3.021793 2.940034,-0.892139 0.652617,1.516903 1.115706,-1.86854 z"
           id="path874-3-7-3"
           inkscape:connector-curvature="0"
           sodipodi:nodetypes="cccccccccccccccccccccccccccccccccccccccccccccccc" />
      </g>
      <text
         transform="rotate(29.667764)"
         id="text1783"
         y="3.5837185"
         x="25.862137"
         style="font-style:normal;font-variant:normal;font-weight:bold;font-stretch:normal;font-size:18.4454174px;line-height:1.25;font-family:nuffle;-inkscape-font-specification:'nuffle Bold';letter-spacing:0px;word-spacing:0px;fill:#000000;fill-opacity:1;stroke:none;stroke-width:3.69113135"
         xml:space="preserve"><tspan
           style="font-style:normal;font-variant:normal;font-weight:bold;font-stretch:normal;font-size:18.4454174px;font-family:nuffle;-inkscape-font-specification:'nuffle Bold';stroke-width:3.69113135"
           y="3.5837185"
           x="25.862137"
           id="tspan1781"
           sodipodi:role="line">?</tspan></text>
      <text
         transform="rotate(-35.24259)"
         id="text1783-4"
         y="37.384792"
         x="-11.547005"
         style="font-style:normal;font-variant:normal;font-weight:bold;font-stretch:normal;font-size:18.27053261px;line-height:1.25;font-family:nuffle;-inkscape-font-specification:'nuffle Bold';letter-spacing:0px;word-spacing:0px;fill:#000000;fill-opacity:1;stroke:none;stroke-width:3.62490249"
         xml:space="preserve"><tspan
           style="font-style:normal;font-variant:normal;font-weight:bold;font-stretch:normal;font-size:18.27053261px;font-family:nuffle;-inkscape-font-specification:'nuffle Bold';stroke-width:3.62490249"
           y="37.384792"
           x="-11.547005"
           id="tspan1781-8"
           sodipodi:role="line">?</tspan></text>
    </g>
    <text
       xml:space="preserve"
       style="font-style:normal;font-variant:normal;font-weight:bold;font-stretch:normal;font-size:3.17499995px;line-height:1.25;font-family:nuffle;-inkscape-font-specification:'nuffle Bold';letter-spacing:0px;word-spacing:0px;fill:#000000;fill-opacity:1;stroke:none;stroke-width:0.26458332"
       x="-22.340372"
       y="9.8838053"
       id="text1838"><tspan
         sodipodi:role="line"
         id="tspan1836"
         x="-22.340372"
         y="13.45568"
         style="font-style:normal;font-variant:normal;font-weight:bold;font-stretch:normal;font-family:nuffle;-inkscape-font-specification:'nuffle Bold';stroke-width:0.26458332" /></text>
  </g>
</svg>
